<svg version="1" xmlns="http://www.w3.org/2000/svg" width="256" height="256" viewBox="0 0 192.000000 192.000000"><path d="M29.5 34.2c.1 1.8 1 2.4 4 2.9 7.6 1.2 7.5.9 7.5 38.4 0 19.1-.4 34.5-1 35.9-.7 1.9-2.1 2.8-5.5 3.7-3.8 1-4.5 1.5-4.5 3.5v2.4h39v-2.5c0-2-.7-2.6-4-3.5-2.2-.6-4.4-1.9-5-3-.6-1-1-9-1-18 0-19.2.4-19.6 8.9-8.2l5.4 7.3 2-3.3c1-1.8 3.5-5.2 5.4-7.6l3.5-4.3-3.6-5.4c-2-3-3.6-5.8-3.6-6.3 0-.4 5.3-6 11.8-12.4 12-11.8 17.3-15.4 24.5-16.6 3.3-.6 4.3-1.2 4.5-3l.3-2.2H83v2.5c0 1.9.5 2.5 2.3 2.5 1.3 0 3.2.6 4.2 1.4 1.9 1.3 1.8 1.5-.8 5.4C81.2 54.6 63.1 73 59.9 73c-.5 0-.9-6.8-.9-15.8 0-17.9.4-19.1 6.6-20.1 3-.5 4-1.1 4.2-2.9l.3-2.2H29.3l.2 2.2z"/><path d="M116.8 68.1c-14.6 1.9-28.1 9.2-35.4 19.1-12.5 17.1-11.4 43 2.5 58.1 5.1 5.5 15.6 11.1 24.7 13.3 8.6 2 28.4 1.4 39.2-1.3l7.3-1.8.2-16 .2-16 3.6-1.8c2.8-1.3 3.6-2.2 3.2-3.7-.5-1.9-1.5-2-20.3-2-18.7 0-19.8.1-20.3 1.9-.6 2.6 0 3.1 3.8 3.1 9.8 0 11.9 3.7 11.3 19.1-.5 13-1.7 14.4-11.7 14.3-16.8-.1-28.3-12.6-31.4-34.3-1.9-13.4 1.5-27.8 8.7-36.6 9.7-11.7 28.4-13.8 39.3-4.2 3.5 3.1 8.3 11.3 8.3 14.2 0 1.2.6 1.5 2.3.9 1.2-.3 2.4-.8 2.6-1 .5-.4-1.6-21.4-2.1-22-.9-.8-14.8-3.2-21.8-3.7-4.1-.3-10.5-.1-14.2.4z"/><path d="M97.5 103.2c-.4 2.9-.5 8-.3 11.3l.3 6 10.3.3 10.2.3v-3c0-2.2-.6-3-2.3-3.5-2.6-.6-10.5-8.2-14-13.3-1.2-1.8-2.5-3.3-2.9-3.3-.4 0-.9 2.4-1.3 5.2z"/></svg>